<?xml version="1.0" encoding="iso-8859-1"?>
<!-- Generator: Adobe Illustrator 19.0.0, SVG Export Plug-In . SVG Version: 6.00 Build 0)  -->
<svg version="1.1" id="Capa_1" xmlns="http://www.w3.org/2000/svg" xmlns:xlink="http://www.w3.org/1999/xlink" x="0px" y="0px"
	 viewBox="0 0 512.001 512.001" style="enable-background:new 0 0 512.001 512.001;" xml:space="preserve">
<g>
	<g>
		<path d="M461.491,223.49c-0.803-24.393-21.39-43.49-45.796-43.49h-65.096l-40.016-60.024c0.312,0.005,0.62,0.024,0.933,0.024
			c34.035,0,61.542-28.485,59.933-62.867c-1.437-30.708-26.358-55.629-57.066-57.066c-34.381-1.61-62.867,25.897-62.867,59.932
			c0,11.137,3.06,21.568,8.369,30.516c-5.032,0.748-9.811,2.321-14.187,4.601c-5.231-7.417-12.72-13.278-21.776-16.484
			l-28.279-10.014c-23.446-8.303-49.137,3.951-57.44,27.397L112.97,167.27c-21.141-3.568-42.488,8.455-49.886,29.345l-10.014,28.28
			c-8.282,23.39,4.008,49.157,27.398,57.44l56.558,20.028c7.836,2.775,16.213,3.379,24.491,1.581v70.945
			c0,5.015-2.507,9.699-6.679,12.481l-63.28,42.185c-20.691,13.787-26.28,41.7-12.48,62.41
			c13.836,20.737,41.816,26.218,62.399,12.476l90-60c12.519-8.346,20.039-22.397,20.039-37.443v-49.183l30,15v93.387
			c0,25.18,20.606,46.222,45.782,45.791c24.454-0.419,44.218-20.442,44.218-44.993V344.999c0-17.158-9.534-32.583-24.881-40.256
			l-82.963-41.475l12.857-32.133l12.543,18.821c8.345,12.521,22.397,20.043,37.444,20.043h75v226.576
			c0,8.077,6.207,15.027,14.275,15.407c8.614,0.406,15.725-6.458,15.725-14.983v-229.58
			C449.422,261.068,462.156,243.692,461.491,223.49z M281.614,57.554c1.158-14.53,12.928-26.3,27.457-27.457
			c18.462-1.471,33.819,13.886,32.348,32.348c-1.158,14.529-12.928,26.299-27.457,27.457
			C295.5,91.373,280.143,76.016,281.614,57.554z M166.482,106.029c2.767-7.815,11.331-11.899,19.146-9.132l28.279,10.014
			c5.842,2.069,9.722,7.442,9.976,13.479l-29.932,74.829l-52.475-18.582L166.482,106.029z M147.039,274.083l-56.558-20.028
			c-7.797-2.761-11.894-11.35-9.133-19.147l10.014-28.279c2.761-7.797,11.353-11.893,19.146-9.133
			c5.807,2.056,66.492,23.546,72.292,25.6l-17.643,44.108C161.674,273.528,154.072,276.572,147.039,274.083z M221.516,406.998
			c0,5.027-2.497,9.693-6.68,12.481l-90.008,60.006c-6.888,4.598-16.208,2.705-20.79-4.163c-4.594-6.895-2.744-16.205,4.158-20.803
			l69.961-46.641c8.346-5.564,13.359-14.931,13.359-24.962v-55.102l30,15V406.998z M416.516,239.999h-90
			c-5.016,0-9.699-2.507-12.481-6.681l-28.357-42.551c-3.089-4.635-8.497-7.175-14.033-6.601
			c-5.541,0.576-10.306,4.176-12.375,9.347l-28.58,71.426c-2.898,7.244,0.24,15.5,7.219,18.989l95.311,47.648
			c5.085,2.542,8.296,7.738,8.296,13.423v121.565c0,8.067-6.187,15.019-14.244,15.416c-8.613,0.425-15.756-6.46-15.756-14.981
			V363.544c0-5.682-3.21-10.876-8.292-13.416l-103.418-51.709c-6.867-3.434-10.036-11.665-7.287-18.813
			c0-0.001,60.605-151.365,60.605-151.365c5.024-9.944,19.293-11.432,25.872-1.562l51.094,76.641
			c2.782,4.173,7.466,6.679,12.481,6.679h73.51c8.067,0,15.019,6.187,15.416,14.244
			C431.922,232.856,425.037,239.999,416.516,239.999z"/>
	</g>
</g>
<g>
</g>
<g>
</g>
<g>
</g>
<g>
</g>
<g>
</g>
<g>
</g>
<g>
</g>
<g>
</g>
<g>
</g>
<g>
</g>
<g>
</g>
<g>
</g>
<g>
</g>
<g>
</g>
<g>
</g>
</svg>
