<?xml version="1.0" encoding="iso-8859-1"?>
<!-- Generator: Adobe Illustrator 19.0.0, SVG Export Plug-In . SVG Version: 6.00 Build 0)  -->
<svg version="1.1" id="Capa_1" xmlns="http://www.w3.org/2000/svg" xmlns:xlink="http://www.w3.org/1999/xlink" x="0px" y="0px"
	 viewBox="0 0 512 512" style="enable-background:new 0 0 512 512;" xml:space="preserve">
<g>
	<g>
		<path d="M497,482H391V237.42c17.459-6.192,30-22.865,30-42.42c0-24.813-20.187-45-45-45h-76.376l-57.811-38.54
			C259.283,100.959,271,81.825,271,60c0-33.084-26.916-60-60-60s-60,26.916-60,60c0,15.669,6.044,29.949,15.916,40.647
			c-1.884,1.602-3.642,3.365-5.256,5.281C150.96,96.049,136.676,90,121,90c-33.084,0-60,26.916-60,60v135c0,24.813,20.187,45,45,45
			h30c5.259,0,10.305-0.915,15-2.58v34.046L98.504,442.12c-7.981,12.032-9.574,26.651-4.93,39.88H15c-8.284,0-15,6.716-15,15
			s6.716,15,15,15h482c8.284,0,15-6.716,15-15S505.284,482,497,482z M211,30c16.542,0,30,13.458,30,30s-13.458,30-30,30
			s-30-13.458-30-30S194.458,30,211,30z M91,150c0-16.542,13.458-30,30-30s30,13.458,30,30v30H91V150z M136,300h-30
			c-8.271,0-15-6.729-15-15v-75h60v75C151,293.271,144.271,300,136,300z M135.97,481.999c-11.901,0.001-19.085-13.362-12.449-23.322
			c0.03-0.045,0.06-0.09,0.089-0.135l54.961-84.441c1.585-2.435,2.429-5.277,2.429-8.183v-36.836l30,20V375
			c0,2.97-0.871,5.847-2.52,8.32c-0.028,0.042-0.056,0.084-0.084,0.126l-59.948,91.921
			C145.651,479.521,140.992,481.999,135.97,481.999z M179.939,482l53.55-82.111C238.403,392.488,241,383.884,241,375v92
			c0,5.258,0.915,10.305,2.58,15H179.939z M361,482h-32.58c1.665-4.695,2.58-9.742,2.58-15V345c0-15.08-7.491-29.077-20.039-37.442
			L241,260.917v-41.835l20.039,13.359C268.456,237.386,277.087,240,286,240h75V482z M376,210h-90c-2.971,0-5.848-0.871-8.32-2.52
			c-8.603-5.735-34.81-23.207-43.359-28.906c-9.954-6.636-23.32,0.549-23.32,12.481v0.045c0,0.02,0,0.04,0,0.059v77.786
			c0,5.015,2.507,9.699,6.68,12.481l76.641,51.094c4.183,2.789,6.68,7.454,6.68,12.48v122c0,8.271-6.729,15-15,15s-15-6.729-15-15
			V361.055c0-5.015-2.507-9.699-6.68-12.481c-1.235-0.823-74.114-49.41-76.641-51.094c-4.183-2.789-6.68-7.454-6.68-12.48
			c0-6.256,0-143.697,0-150c0-0.002,0-0.004,0-0.006c0-0.002,0-0.004,0-0.006c-0.012-11.945,13.359-19.119,23.32-12.468
			l82.441,54.961c2.464,1.642,5.359,2.519,8.32,2.519H376c8.271,0,15,6.729,15,15S384.271,210,376,210z"/>
	</g>
</g>
<g>
</g>
<g>
</g>
<g>
</g>
<g>
</g>
<g>
</g>
<g>
</g>
<g>
</g>
<g>
</g>
<g>
</g>
<g>
</g>
<g>
</g>
<g>
</g>
<g>
</g>
<g>
</g>
<g>
</g>
</svg>
