<svg width="22" height="22" viewBox="0 0 22 22" fill="none" xmlns="http://www.w3.org/2000/svg">
<path d="M21.8082 18.5668L19.3422 16.1007C18.9093 15.6679 18.3337 15.4294 17.7215 15.4294C17.3343 15.4294 16.9619 15.525 16.6308 15.7046L14.8355 13.9092C17.3709 11.2102 18.9454 8.12329 19.833 5.95479C20.851 3.46789 21.2055 1.65603 21.22 1.5801C21.261 1.3668 21.1936 1.14715 21.04 0.993534C20.8865 0.839963 20.667 0.772546 20.4535 0.813538C20.3775 0.828104 18.5657 1.18255 16.0787 2.20053C13.9103 3.08817 10.8234 4.66272 8.12432 7.19813L6.29532 5.36913C6.47493 5.03809 6.57053 4.66568 6.57053 4.27849C6.57053 3.66627 6.3321 3.09071 5.89919 2.65784L3.43317 0.19178C3.17751 -0.0639267 2.7629 -0.0639267 2.50719 0.19178L0.19178 2.50719C-0.0639267 2.7629 -0.0639267 3.17746 0.19178 3.43317L2.65784 5.89927C3.09071 6.33214 3.66636 6.57057 4.27854 6.57057C4.66586 6.57057 5.03831 6.47488 5.36943 6.29523L7.19839 8.12419C4.66298 10.8233 3.08843 13.9101 2.20083 16.0787C1.18281 18.5656 0.828405 20.3774 0.813796 20.4533C0.772803 20.6666 0.840221 20.8862 0.993792 21.0399C1.11776 21.1638 1.28478 21.2317 1.45674 21.2317C1.49777 21.2317 1.53919 21.2279 1.58031 21.2199C1.65624 21.2053 3.46806 20.8509 5.95505 19.8329C8.12351 18.9452 11.2104 17.3708 13.9095 14.8354L15.7048 16.6307C15.5251 16.9618 15.4294 17.3343 15.4294 17.7216C15.4294 18.3338 15.6679 18.9094 16.1008 19.3423L18.5668 21.8083C18.6947 21.9362 18.8623 22.0001 19.0298 22.0001C19.1973 22.0001 19.3649 21.9362 19.4927 21.8083L21.8081 19.4929C22.0639 19.2371 22.0639 18.8225 21.8082 18.5668ZM4.97325 4.97325C4.78772 5.15879 4.54099 5.26106 4.27849 5.26106C4.01608 5.26106 3.76936 5.15888 3.58377 4.9733L1.5807 2.97018L2.97014 1.58074L4.97321 3.58382C5.15875 3.76936 5.26102 4.01608 5.26102 4.27854C5.26102 4.54099 5.15879 4.78767 4.97325 4.97325ZM5.49004 18.6082C4.20407 19.1363 3.09629 19.4804 2.34838 19.6853C2.55334 18.9373 2.89739 17.8294 3.42552 16.5436C4.26642 14.4962 5.75086 11.5876 8.12471 9.05038L9.01017 9.93584C8.61541 10.4306 8.3243 10.9651 8.17163 11.4841C7.92671 12.3168 8.05227 13.0358 8.52509 13.5086C8.84714 13.8307 9.27928 13.9854 9.7671 13.9854C10.4828 13.9854 11.3178 13.6517 12.0988 13.0243L12.9834 13.9089C10.446 16.2829 7.53746 17.7672 5.49004 18.6082ZM11.1638 12.0895C10.837 12.3321 10.4961 12.5128 10.18 12.6058C9.84857 12.7033 9.56244 12.6942 9.45098 12.5828C9.33939 12.4712 9.33037 12.185 9.42787 11.8537C9.52085 11.5376 9.70158 11.1967 9.94418 10.8699L11.1638 12.0895ZM10.8701 9.94396C11.1969 9.70136 11.5378 9.52063 11.8539 9.42765C12.0069 9.38266 12.1502 9.3604 12.2712 9.3604C12.4122 9.3604 12.523 9.39074 12.5829 9.45077C12.6945 9.56227 12.7035 9.84844 12.606 10.1798C12.513 10.4959 12.3323 10.8368 12.0897 11.1636L10.8701 9.94396ZM13.9092 12.9831L13.0243 12.0982C14.0791 10.7851 14.3034 9.31946 13.5089 8.52479C12.7143 7.73021 11.2486 7.95464 9.93546 9.00935L9.0506 8.12449C11.5879 5.75056 14.4964 4.26616 16.5438 3.42526C17.829 2.89739 18.9365 2.55343 19.6844 2.34842C19.1217 4.39249 17.5118 9.13482 13.9092 12.9831ZM19.0298 20.4193L17.0267 18.4162C16.8412 18.2307 16.7389 17.9839 16.7389 17.7215C16.7389 17.459 16.8411 17.2123 17.0267 17.0267C17.2123 16.8412 17.459 16.739 17.7215 16.739C17.9839 16.739 18.2306 16.8411 18.4162 17.0267L20.4193 19.0298L19.0298 20.4193Z" fill="black"/>
</svg>
