<svg width="40" height="40" viewBox="0 0 40 40" fill="none" xmlns="http://www.w3.org/2000/svg">
<rect width="40" height="40" rx="20" fill="#EEEEEE"/>
<path d="M26.3136 10.2551L25.4992 9.59475L25.1199 10.5728C25.1127 10.5914 24.3841 12.4327 23.2653 12.0973C23.0176 12.023 22.8514 11.8797 22.7425 11.6463C22.4646 11.0515 22.5829 9.97474 23.0436 8.90325C23.6806 7.42162 23.4016 5.8691 22.2368 4.41344C21.4175 3.38955 20.433 2.7697 20.3915 2.74379L19.1987 2L19.2253 3.405C19.2258 3.4301 19.2514 5.92627 17.4023 6.84161C16.2694 7.40241 15.4583 8.32995 15.1186 9.45338C14.8008 10.5043 14.9342 11.6534 15.4848 12.606C15.7102 12.9959 15.7784 13.3266 15.6878 13.5889C15.5583 13.9637 15.14 14.1566 15.0149 14.2068C13.6929 14.7375 12.8275 12.9659 12.7925 12.8927L12.1895 11.6063L11.4505 12.8198C10.5015 14.3781 10 16.1715 10 18.0059C10 23.4765 14.4211 27.9338 19.8799 27.9985C19.9197 27.9995 19.9597 28 19.9998 28H19.9999H20C25.514 28 30 23.5166 30 18.0059C30 14.9883 28.6564 12.1633 26.3136 10.2551ZM16.8725 23.3499L16.8724 23.3405C16.865 22.7338 16.9806 22.0832 17.2169 21.3997L19.0965 21.9488L19.1155 20.9519C19.1445 19.4252 20.0059 18.4879 20.6946 17.9809C20.8711 18.7488 21.1464 19.4336 21.5266 20.0546C21.9602 20.7616 22.3707 21.3609 22.7494 21.9026C22.9926 22.2514 23.1306 22.7779 23.1279 23.3471V23.3507C23.1279 24.1853 22.8025 24.9702 22.2117 25.5607C21.6214 26.1506 20.8359 26.4755 19.9999 26.4755C19.9998 26.4755 19.9997 26.4755 19.9996 26.4755C18.2759 26.4754 16.8731 25.0738 16.8725 23.3499ZM24.1974 25.3616C24.4951 24.7423 24.6529 24.0595 24.6531 23.3523C24.657 22.464 24.4253 21.6395 24 21.03C23.5777 20.4258 23.2166 19.8932 22.8273 19.2583C22.3933 18.5494 22.1323 17.7139 22.0295 16.7042L21.929 15.7172L21.0008 16.0685C20.9137 16.1014 20.1274 16.4114 19.3214 17.1421C18.4667 17.9171 17.9149 18.8753 17.6962 19.9514L16.333 19.5532L16.0639 20.1666C15.5767 21.2771 15.3356 22.3496 15.3473 23.3546C15.348 24.0739 15.513 24.7555 15.8067 25.3639C13.2513 23.9037 11.5252 21.1525 11.5252 18.0058C11.5252 16.8612 11.7554 15.7357 12.1975 14.6951C12.2652 14.77 12.3373 14.8448 12.4137 14.9184C13.3479 15.8171 14.4735 16.0668 15.5831 15.6215C16.3327 15.3207 16.8963 14.7612 17.1294 14.0865C17.2954 13.6062 17.374 12.8271 16.8054 11.8433C16.4598 11.2454 16.3792 10.5533 16.5785 9.89441C16.795 9.17852 17.3279 8.5795 18.0791 8.20763C19.6601 7.42502 20.3064 5.95584 20.57 4.84135C20.7364 5.00488 20.9073 5.1901 21.0679 5.39377C21.8516 6.38681 22.0448 7.36506 21.6422 8.30139C20.9983 9.79892 20.8929 11.2904 21.3603 12.2912C21.6539 12.92 22.1611 13.3578 22.8269 13.5574C23.8736 13.8713 24.8971 13.506 25.7093 12.5288C25.8364 12.3758 25.9487 12.2201 26.0464 12.0704C27.5997 13.6481 28.4747 15.7643 28.4747 18.0058C28.4748 21.1509 26.7506 23.9008 24.1974 25.3616Z" fill="black"/>
<rect x="11.6987" y="29" width="18.3821" height="2.0869" rx="1" transform="rotate(13.484 11.6987 29)" fill="black"/>
<rect width="18.3821" height="2.43629" rx="1" transform="matrix(0.972435 -0.233173 -0.233173 -0.972435 11.5679 35.6553)" fill="black"/>
</svg>
