<?xml version="1.0" encoding="iso-8859-1"?>
<!-- Generator: Adobe Illustrator 19.0.0, SVG Export Plug-In . SVG Version: 6.00 Build 0)  -->
<svg version="1.1" id="Capa_1" xmlns="http://www.w3.org/2000/svg" xmlns:xlink="http://www.w3.org/1999/xlink" x="0px" y="0px"
	 viewBox="0 0 512.003 512.003" style="enable-background:new 0 0 512.003 512.003;" xml:space="preserve">
<g>
	<g>
		<path d="M419.745,383.392c38.912-49.984,60.256-110.944,60.256-175.392c0-76.96-30.08-149.184-84.704-203.36
			c-6.24-6.176-16.32-6.176-22.56,0c-54.656,54.176-84.736,126.4-84.736,203.36c0,64.448,21.344,125.408,60.288,175.392
			l-58.24,104.832c-3.328,5.92-2.496,13.28,1.984,18.368c4.48,5.088,11.616,6.752,17.952,4.288l74.016-29.632l74.048,29.632
			c1.952,0.736,3.968,1.12,5.952,1.12c4.512,0,8.896-1.92,12-5.408c4.48-5.088,5.28-12.448,1.984-18.368L419.745,383.392z
			 M384.001,39.264c28.96,32.608,48.512,71.552,57.76,113.504c-38.112,8.8-77.44,8.8-115.52,0
			C335.489,110.816,355.041,71.872,384.001,39.264z M320.001,208c0-7.968,0.384-15.872,1.088-23.712
			c20.768,4.64,41.792,7.68,62.912,7.68s42.144-3.04,62.912-7.68c0.704,7.84,1.088,15.744,1.088,23.712
			c0,60.032-20.832,116.704-58.752,162.24c-0.928,0.896-1.696,1.824-2.368,2.912c-0.992,1.152-1.856,2.432-2.88,3.584
			c-1.024-1.152-1.888-2.4-2.88-3.584c-0.672-1.088-1.44-2.016-2.368-2.912C340.833,324.704,320.001,268.032,320.001,208z
			 M389.953,449.12c-3.808-1.536-8.064-1.536-11.872,0l-38.176,15.296l30.752-55.328c0.736,0.736,1.344,1.536,2.08,2.272
			c3.104,3.104,7.2,4.64,11.264,4.64c4.064,0,8.16-1.536,11.296-4.64c0.736-0.736,1.344-1.536,2.08-2.272l30.752,55.328
			L389.953,449.12z"/>
	</g>
</g>
<g>
	<g>
		<path d="M400.641,96h-0.32c-8.832,0-15.84,7.168-15.84,16c0,8.832,7.328,16,16.16,16c8.832,0,16-7.168,16-16
			C416.641,103.168,409.473,96,400.641,96z"/>
	</g>
</g>
<g>
	<g>
		<path d="M224.001,162.944V16c0-8.832-7.168-16-16-16c-8.832,0-16,7.168-16,16v146.944c-18.592,6.624-32,24.224-32,45.056
			c0,20.832,13.408,38.432,32,45.056V416c0,35.296-28.704,64-64,64s-64-28.704-64-64v-42.816l20.992,19.872
			c6.4,6.048,16.576,5.792,22.624-0.64c6.048-6.432,5.792-16.544-0.64-22.624l-48-45.44c-4.64-4.352-11.424-5.6-17.28-3.072
			c-5.856,2.528-9.696,8.32-9.696,14.72v80c0,52.928,43.072,96,96,96c52.928,0,96-43.072,96-96V253.056
			c18.592-6.624,32-24.224,32-45.056C256.001,187.168,242.593,169.568,224.001,162.944z M208.001,224c-8.8,0-16-7.168-16-16
			c0-8.832,7.2-16,16-16s16,7.168,16,16C224.001,216.832,216.801,224,208.001,224z"/>
	</g>
</g>
<g>
</g>
<g>
</g>
<g>
</g>
<g>
</g>
<g>
</g>
<g>
</g>
<g>
</g>
<g>
</g>
<g>
</g>
<g>
</g>
<g>
</g>
<g>
</g>
<g>
</g>
<g>
</g>
<g>
</g>
</svg>
