<svg width="27" height="26" viewBox="0 0 27 26" fill="none" xmlns="http://www.w3.org/2000/svg">
<path d="M13.3354 0C8.21481 0 4.04883 4.10048 4.04883 9.14062C4.04883 10.8435 4.52807 12.5054 5.43506 13.9472L12.8068 25.6399C12.948 25.8639 13.1968 26 13.4644 26C13.4664 26 13.4685 26 13.4705 26C13.7404 25.9979 13.9897 25.8576 14.1283 25.6297L21.3122 13.8237C22.1691 12.4124 22.6221 10.793 22.6221 9.14062C22.6221 4.10048 18.4561 0 13.3354 0ZM19.9839 13.0415L13.4527 23.7751L6.75056 13.1445C5.99561 11.9445 5.58628 10.56 5.58628 9.14062C5.58628 4.94051 9.06825 1.51328 13.3354 1.51328C17.6027 1.51328 21.0795 4.94051 21.0795 9.14062C21.0795 10.5179 20.6971 11.867 19.9839 13.0415Z" fill="black"/>
<path d="M13.3357 4.57031C10.7754 4.57031 8.69238 6.62055 8.69238 9.14062C8.69238 11.6446 10.7415 13.7109 13.3357 13.7109C15.9619 13.7109 17.979 11.6171 17.979 9.14062C17.979 6.62055 15.896 4.57031 13.3357 4.57031ZM13.3357 12.1977C11.6199 12.1977 10.2298 10.8249 10.2298 9.14062C10.2298 7.46058 11.6288 6.08359 13.3357 6.08359C15.0426 6.08359 16.4364 7.46058 16.4364 9.14062C16.4364 10.8003 15.0787 12.1977 13.3357 12.1977Z" fill="black"/>
</svg>
