<svg width="27" height="26" viewBox="0 0 27 26" fill="none" xmlns="http://www.w3.org/2000/svg">
<path d="M22.6748 3.80763C20.1801 1.35225 16.8634 0 13.3356 0C9.80763 0 6.49092 1.35225 3.99627 3.80763C1.50173 6.263 0.12793 9.52758 0.12793 13C0.12793 16.4724 1.50173 19.737 3.99627 22.1924C6.49092 24.6477 9.80763 26 13.3356 26C13.7629 26 14.1095 25.659 14.1095 25.2383C14.1095 24.8176 13.7629 24.4766 13.3356 24.4766C6.90629 24.4766 1.6757 19.3282 1.6757 13C1.6757 6.67179 6.90629 1.52344 13.3356 1.52344C19.7648 1.52344 24.9954 6.67179 24.9954 13V16.0596C24.9954 17.3266 23.9482 18.3574 22.6609 18.3574C21.3736 18.3574 20.3263 17.3266 20.3263 16.0596V13C20.3263 9.20588 17.1903 6.11914 13.3356 6.11914C9.48085 6.11914 6.34481 9.20588 6.34481 13C6.34481 16.7941 9.48085 19.8809 13.3356 19.8809C15.6219 19.8809 17.6554 18.7949 18.9317 17.1195C19.3997 18.7124 20.8938 19.8809 22.6609 19.8809C24.8016 19.8809 26.5432 18.1666 26.5432 16.0596V13C26.5432 9.52758 25.1694 6.263 22.6748 3.80763ZM13.3356 18.3574C10.3342 18.3574 7.89258 15.9541 7.89258 13C7.89258 10.0459 10.3342 7.64258 13.3356 7.64258C16.3368 7.64258 18.7786 10.0459 18.7786 13C18.7786 15.9541 16.3368 18.3574 13.3356 18.3574Z" fill="black"/>
</svg>
