<svg width="27" height="26" viewBox="0 0 27 26" fill="none" xmlns="http://www.w3.org/2000/svg">
<g clip-path="url(#clip0)">
<path d="M13.3147 3.13943C6.67994 1.30919 0.119141 6.25112 0.119141 12.9999C0.119141 19.7615 6.6919 24.6872 13.3147 22.8602C19.9586 24.6946 26.5052 19.735 26.5052 12.9999C26.5052 6.25719 19.9505 1.3074 13.3147 3.13943ZM1.67126 12.9999C1.67126 8.15055 5.71401 4.21379 10.6555 4.2922C7.69824 6.09895 5.7242 9.32631 5.7242 12.9999C5.7242 16.6734 7.69824 19.9008 10.6555 21.7075C5.71411 21.7859 1.67126 17.8493 1.67126 12.9999ZM16.1147 21.7089C11.2412 21.7089 7.27637 17.802 7.27637 12.9999C7.27637 8.19771 11.2412 4.29083 16.1147 4.29083C20.9882 4.29083 24.953 8.19771 24.953 12.9999C24.953 17.802 20.9882 21.7089 16.1147 21.7089Z" fill="black"/>
<path d="M17.2147 12.2352H15.0145C14.353 12.2352 13.8148 11.7049 13.8148 11.053C13.8148 10.3989 14.3521 9.87075 15.0143 9.87075C15.0192 9.8708 15.0241 9.87075 15.0291 9.8708H17.1374C17.5812 9.87483 18.0187 10.0695 18.3379 10.4051C18.631 10.7132 19.1222 10.729 19.4348 10.4401C19.7475 10.1513 19.7635 9.66739 19.4704 9.35921C18.7363 8.58742 17.8918 8.34139 16.8908 8.34139V7.42517C16.8908 7.00285 16.5433 6.66046 16.1147 6.66046C15.6861 6.66046 15.3386 7.00285 15.3386 7.42517V8.34139C13.2781 8.34139 12.2627 9.66219 12.2627 11.053C12.2627 12.5482 13.4972 13.7646 15.0146 13.7646H17.2148C17.8763 13.7646 18.4145 14.2949 18.4145 14.9468C18.4145 15.6008 17.8772 16.129 17.215 16.129C17.2101 16.129 17.2052 16.1289 17.2001 16.1289H14.9C14.5804 16.126 14.2572 16.019 13.9652 15.8193C13.613 15.5786 13.1295 15.6648 12.8852 16.0117C12.6409 16.3587 12.7283 16.8351 13.0804 17.0759C14.0293 17.7246 14.8396 17.6584 15.3385 17.6584V18.5746C15.3385 18.9969 15.686 19.3393 16.1146 19.3393C16.5432 19.3393 16.8906 18.9969 16.8906 18.5746V17.6584C18.9757 17.6584 19.9666 16.3124 19.9666 14.9468C19.9666 13.4516 18.7321 12.2352 17.2147 12.2352Z" fill="black"/>
</g>
<defs>
<clipPath id="clip0">
<rect width="26.386" height="26" fill="white" transform="translate(0.119141)"/>
</clipPath>
</defs>
</svg>
