<svg width="23" height="26" viewBox="0 0 23 26" fill="none" xmlns="http://www.w3.org/2000/svg">
<path d="M22.8505 11.2964L18.6094 6.00214C18.387 5.72405 17.9572 5.72405 17.7348 6.00214L15.9913 8.1784L10.0063 0.708298C9.78349 0.43064 9.35416 0.430422 9.13177 0.708516L0.649572 11.296C0.495247 11.4884 0.456715 11.7646 0.551187 12.0005C0.645465 12.2364 0.855339 12.3883 1.08673 12.3883L5.31022 12.3885V12.773C5.31022 13.135 5.57291 13.4283 5.89701 13.4283H8.18939V18.3818H9.1124C7.27948 18.4373 5.29575 18.4118 3.56629 18.389C2.53844 18.3755 1.5677 18.363 0.64077 18.363V19.6738C1.56085 19.6738 2.52827 19.6864 3.5526 19.6996C10.0667 19.7852 14.4391 19.7266 15.8114 18.2117C16.1104 17.8813 16.2687 17.4763 16.2687 17.0403C16.2687 16.1562 15.5408 15.7918 14.9564 15.4989C14.2795 15.1598 13.9487 14.9475 13.9276 14.5193C14.1889 14.0815 15.7981 13.531 17.993 13.065C17.6476 13.4373 17.4291 13.8622 17.4291 14.3421C17.4291 15.3269 18.375 15.5417 19.29 15.7494C20.6868 16.0666 21.602 16.3615 21.602 17.5253C21.602 18.5007 21.252 19.3507 20.5315 20.124C16.1982 24.7758 1.0435 24.1596 0.890546 24.1523L0.843994 25.4622C0.97876 25.4681 1.75293 25.5 2.93589 25.5C7.38999 25.5 17.6365 25.0489 21.3444 21.0693C22.294 20.0502 22.7753 18.8578 22.7753 17.5253C22.7753 15.2035 20.74 14.7413 19.5236 14.4649C19.2374 14.4 18.8302 14.3074 18.6318 14.2167C18.8679 13.6785 20.5037 12.8424 22.2496 12.3885H22.4135C22.6447 12.3885 22.8548 12.2367 22.949 12.0007C23.0433 11.7648 23.005 11.4889 22.8505 11.2964ZM6.4838 12.1174V10.6963H11.3436L11.8322 11.4072L11.3438 12.1174H6.4838ZM12.7526 14.4745C12.7526 15.8318 13.7899 16.3511 14.476 16.6947C14.6773 16.7956 15.0075 16.961 15.0941 17.0667C15.0896 17.1213 15.0681 17.1888 14.9859 17.2795C14.3289 18.0052 12.028 18.2807 9.36296 18.3735V13.4281H11.6328C11.8153 13.4281 11.9871 13.3333 12.0982 13.1719L12.6368 12.3885H15.3881C13.1231 13.1055 12.7526 13.8095 12.7526 14.4745ZM13.0773 11.0778C13.065 11.0542 13.0525 11.0303 13.0372 11.0083L12.0982 9.64206C11.9871 9.48062 11.8153 9.38581 11.6328 9.38581H9.36277V8.66337H8.18919V9.38581H5.89681C5.57271 9.38581 5.31003 9.6792 5.31003 10.0412V11.0778L2.39917 11.0775L9.56912 2.12826L15.5543 9.59837C15.7771 9.87603 16.2065 9.87624 16.4289 9.59815L18.1724 7.42189L21.101 11.0778H13.0773Z" fill="black"/>
</svg>
