<svg id="Layer_1" enable-background="new 0 0 496 496" height="512" viewBox="0 0 496 496" width="512" xmlns="http://www.w3.org/2000/svg"><path d="m280.345 267.662c-1.248-5.005-3.826-9.668-7.882-14.257-5.852-6.622-5.228-16.733 1.394-22.585s16.732-5.229 22.585 1.394c7.436 8.414 12.466 17.735 14.952 27.706 2.513 10.077-5.11 19.875-15.536 19.875-7.174 0-13.7-4.859-15.513-12.133zm25.813-89.075c-14.607-8.109-31.163-17.302-31.158-23.586.001-1.788 1.916-17.974 66.847-42.011h138.153c8.837 0 16-7.163 16-16s-7.163-16-16-16c-5.499 0-455.144 0-464 0-8.837 0-16 7.163-16 16s7.163 16 16 16h151c-26.56 16.368-40.357 34.693-40.992 54.486-1.682 52.432 86.773 68.701 92.128 109.591 3.589 27.407-33.804 65.817-105.289 108.156-7.604 4.503-10.116 14.317-5.613 21.92s14.314 10.117 21.92 5.613c86.815-51.418 126.301-97.162 120.711-139.844-4.271-32.616-32.453-52.105-57.317-69.3-17.162-11.867-34.907-24.14-34.555-35.109.196-6.128 7.155-28.103 87.647-55.514h24.283c-18.16 13.119-26.913 26.924-26.923 41.988-.049 70.239 182.882 44.036 102.228 237.865-4.408 10.593 3.449 22.15 14.766 22.15 6.27 0 12.221-3.708 14.779-9.857 27.411-65.877 29.844-120.009 7.229-160.891-18.802-33.987-50.431-51.547-75.844-65.657zm23.988 116.197c-8.731-1.261-16.862 4.794-18.129 13.541-1.945 13.427-6.436 27.901-13.347 43.021-4.863 10.639 2.987 22.655 14.542 22.655 6.069 0 11.874-3.472 14.562-9.353 8.177-17.89 13.531-35.296 15.913-51.736 1.267-8.744-4.795-16.86-13.541-18.128zm-39.276 88.516c-12.886 2.784-17.001 18.18-8.181 27 10.59 10.59 28.657 2.033 27.23-12.88-.888-9.276-9.635-15.96-19.049-14.12zm-193.87-159.31c0-8.837-7.163-16-16-16h-51c-8.837 0-16 7.163-16 16s7.163 16 16 16h51c8.837 0 16-7.163 16-16zm60 69c0-8.837-7.163-16-16-16h-80c-8.837 0-16 7.163-16 16s7.163 16 16 16h80c8.837 0 16-7.163 16-16zm224-153c-8.837 0-16 7.163-16 16s7.163 16 16 16h67c8.837 0 16-7.163 16-16s-7.163-16-16-16zm99 83h-34c-8.837 0-16 7.163-16 16s7.163 16 16 16h34c8.837 0 16-7.163 16-16s-7.163-16-16-16zm-30 84h-12c-8.837 0-16 7.163-16 16s7.163 16 16 16h12c8.837 0 16-7.163 16-16s-7.163-16-16-16z"/></svg>