<svg width="22" height="26" viewBox="0 0 22 26" fill="none" xmlns="http://www.w3.org/2000/svg">
<path d="M21.0677 19.9755H11.9832V17.8752H21.0691C21.3351 17.8752 21.5782 17.718 21.6968 17.4693C21.8154 17.2206 21.7891 16.9232 21.6289 16.7015L11.9832 3.35331V1.23242C11.9832 0.827929 11.6693 0.5 11.282 0.5C10.0109 0.5 8.75809 1.1894 7.55848 2.54912C6.5784 3.65995 5.6563 5.18564 4.81788 7.08373C3.35872 10.387 2.33961 14.5117 2.33961 17.114C2.33961 17.5185 2.65358 17.8465 3.04086 17.8465H10.5807V19.9755H1.14308C0.870387 19.9755 0.622377 20.1407 0.507324 20.3989C0.392272 20.6572 0.430934 20.9616 0.606575 21.1796L3.87778 25.2392C4.01102 25.4045 4.20737 25.5 4.41434 25.5H17.7965C18.0034 25.5 18.1998 25.4045 18.3331 25.2392L21.6043 21.1796C21.7799 20.9616 21.8186 20.6572 21.7036 20.3989C21.5884 20.1406 21.3405 19.9755 21.0677 19.9755ZM11.9832 16.4104V5.7849L19.6613 16.4103H11.9832V16.4104ZM6.09136 7.6974C7.4812 4.55102 9.08174 2.56352 10.5807 2.08003V16.3816H3.76825C3.93122 13.9653 4.84079 10.5285 6.09136 7.6974ZM17.4701 24.0351H4.74065L2.64979 21.4403H19.5609L17.4701 24.0351Z" fill="black"/>
</svg>
