<svg width="30" height="30" viewBox="0 0 30 30" fill="none" xmlns="http://www.w3.org/2000/svg">
<g clip-path="url(#clip0)">
<path d="M29.4155 9.17772C29.7663 9.05303 30.0004 8.72086 30 8.34856C29.9995 7.97625 29.7646 7.64467 29.4135 7.5208L15.2924 2.53852C15.1032 2.47172 14.8968 2.47172 14.7076 2.53852L0.586524 7.5208C0.23543 7.64461 0.000469452 7.97625 7.02365e-07 8.34856C-0.000468048 8.72086 0.233731 9.05303 0.584532 9.17772L6.17842 11.1664V16.8996C6.17842 17.8458 7.16555 18.6461 9.11238 19.2779C10.8093 19.8287 12.9003 20.1321 15.0001 20.1321C17.0998 20.1321 19.1907 19.8287 20.8877 19.2779C22.8346 18.6461 23.8217 17.8459 23.8217 16.8996V11.1664L26.1313 10.3453V18.2897C25.1042 18.6529 24.3662 19.6331 24.3662 20.783C24.3662 21.9328 25.1042 22.9131 26.1313 23.2763V26.6328C26.1313 27.1182 26.5248 27.5117 27.0102 27.5117C27.4956 27.5117 27.8891 27.1182 27.8891 26.6328V23.2763C28.9162 22.9131 29.6542 21.9329 29.6542 20.783C29.6542 19.6331 28.9162 18.6529 27.8891 18.2897V9.72035L29.4155 9.17772ZM27.0101 21.6691C26.5215 21.6691 26.1239 21.2716 26.1239 20.7829C26.1239 20.2942 26.5215 19.8967 27.0101 19.8967C27.4988 19.8967 27.8964 20.2942 27.8964 20.7829C27.8964 21.2716 27.4988 21.6691 27.0101 21.6691ZM15 4.29932L26.4884 8.35277L15 12.4369L3.51158 8.35272L15 4.29932ZM22.0638 16.7671C21.8954 16.9369 21.2923 17.3436 19.9312 17.7319C18.4792 18.1461 16.7279 18.3742 15 18.3742C13.2721 18.3742 11.5208 18.1461 10.0688 17.7319C8.70768 17.3436 8.10463 16.937 7.93617 16.7671V11.7913L14.7056 14.1979C14.8008 14.2317 14.9004 14.2487 14.9999 14.2487C15.0996 14.2487 15.1991 14.2317 15.2943 14.1979L22.0637 11.7913V16.7671H22.0638Z" fill="black"/>
</g>
<defs>
<clipPath id="clip0">
<rect width="30" height="30" fill="white"/>
</clipPath>
</defs>
</svg>
