<?xml version="1.0" encoding="utf-8"?>
<!-- Generator: Adobe Illustrator 16.0.0, SVG Export Plug-In . SVG Version: 6.00 Build 0)  -->
<!DOCTYPE svg PUBLIC "-//W3C//DTD SVG 1.1//EN" "http://www.w3.org/Graphics/SVG/1.1/DTD/svg11.dtd">
<svg xmlns="http://www.w3.org/2000/svg" xmlns:xlink="http://www.w3.org/1999/xlink" version="1.1" id="Adventure_x5F_Trail" x="0px" y="0px" width="512" height="512" viewBox="0 0 144.083 144" enable-background="new 0 0 144.083 144" xml:space="preserve">
<path d="M128.793,64.202L107.11,39.967c-1.137-1.273-3.334-1.273-4.471,0l-8.914,9.962L63.126,15.734  c-1.139-1.271-3.334-1.272-4.471,0.001L15.289,64.2c-0.789,0.881-0.986,2.145-0.503,3.225c0.482,1.08,1.555,1.775,2.738,1.775  l21.593,0.001v1.76c0,1.657,1.343,3,3,3h11.72v22.675h4.719c-9.371,0.254-19.513,0.137-28.355,0.033  c-5.255-0.062-10.218-0.119-14.957-0.119v6c4.704,0,9.65,0.058,14.887,0.118c33.304,0.392,55.658,0.124,62.674-6.811  c1.529-1.512,2.338-3.366,2.338-5.362c0-4.047-3.721-5.715-6.709-7.056c-3.461-1.552-5.152-2.524-5.26-4.484  c1.336-2.004,9.563-4.524,20.785-6.657c-1.766,1.704-2.883,3.649-2.883,5.846c0,4.508,4.836,5.491,9.514,6.442  c7.141,1.452,11.82,2.802,11.82,8.129c0,4.465-1.789,8.356-5.473,11.896c-22.154,21.294-99.634,18.473-100.416,18.44l-0.238,5.996  c0.689,0.027,4.647,0.173,10.695,0.173c22.772,0,75.158-2.065,94.115-20.282c4.855-4.665,7.316-10.123,7.316-16.223  c0-10.628-10.406-12.744-16.625-14.009c-1.463-0.297-3.545-0.721-4.559-1.136c1.207-2.464,9.57-6.291,18.496-8.369h0.838  c1.182,0,2.256-0.695,2.738-1.775S129.583,65.083,128.793,64.202z M45.117,67.96v-6.505h24.846l2.498,3.254l-2.497,3.251H45.117z   M77.167,78.75c0,6.213,5.303,8.59,8.811,10.163c1.029,0.462,2.717,1.219,3.16,1.703c-0.023,0.25-0.133,0.559-0.553,0.974  c-3.359,3.322-15.123,4.583-28.748,5.008V73.96h11.605c0.933,0,1.811-0.434,2.379-1.173l2.754-3.586h14.066  C79.061,72.483,77.167,75.706,77.167,78.75z M78.827,63.201c-0.063-0.108-0.127-0.217-0.205-0.318l-4.801-6.254  c-0.568-0.739-1.446-1.173-2.379-1.173H59.836v-3.307h-6v3.307h-11.72c-1.657,0-3,1.343-3,3v4.745L24.234,63.2l36.657-40.966  l30.6,34.195c1.139,1.271,3.334,1.272,4.471-0.001l8.914-9.962l14.973,16.735L78.827,63.201z"/>
</svg>
