<?xml version="1.0" standalone="no"?>
<!DOCTYPE svg PUBLIC "-//W3C//DTD SVG 20010904//EN"
 "http://www.w3.org/TR/2001/REC-SVG-20010904/DTD/svg10.dtd">
<svg version="1.0" xmlns="http://www.w3.org/2000/svg"
 width="1792.000000pt" height="1792.000000pt" viewBox="0 0 1792.000000 1792.000000"
 preserveAspectRatio="xMidYMid meet">
<metadata>
Created by potrace 1.11, written by Peter Selinger 2001-2013
</metadata>
<g transform="translate(0.000000,1792.000000) scale(0.100000,-0.100000)"
fill="#000000" stroke="none">
<path d="M580 12141 c-30 -10 -58 -18 -63 -19 -13 -3 -122 -56 -127 -63 -3 -3
-16 -12 -30 -19 -28 -14 -30 -16 -118 -97 -71 -65 -159 -189 -193 -273 -51
-129 -49 22 -46 -2735 l2 -2570 24 -65 c26 -72 100 -210 113 -210 4 0 8 -4 8
-10 0 -16 117 -135 163 -167 23 -15 48 -33 55 -40 6 -6 21 -15 32 -18 11 -3
20 -11 20 -16 0 -5 3 -8 7 -7 8 1 28 -5 78 -27 17 -7 46 -19 65 -26 30 -12
1331 -14 8363 -17 7667 -2 8334 -1 8400 14 40 9 75 21 78 26 3 5 9 9 13 8 12
-3 100 43 158 82 31 21 82 64 113 95 62 63 165 211 165 237 0 9 5 16 11 16 5
0 8 4 5 8 -3 5 1 20 9 35 8 15 12 27 10 27 -1 0 3 21 11 46 12 40 14 441 13
2598 0 2470 -1 2553 -19 2623 -27 103 -115 273 -141 273 -5 0 -9 6 -9 13 0 13
-95 107 -148 147 -19 14 -39 30 -46 35 -24 20 -113 64 -176 87 l-65 23 -8340
2 c-7887 1 -8343 0 -8395 -16z"/>
</g>
</svg>
