<svg width="26" height="26" viewBox="0 0 26 26" fill="none" xmlns="http://www.w3.org/2000/svg">
<g id="card_giftcard_24px">
<path id="icon/action/card_giftcard_24px" fill-rule="evenodd" clip-rule="evenodd" d="M21.6667 7.04165H19.305C19.4242 6.70581 19.5 6.33748 19.5 5.95831C19.5 4.15998 18.0484 2.70831 16.25 2.70831C15.1125 2.70831 14.1267 3.29331 13.5417 4.17081L13 4.89665L12.4584 4.15998C11.8734 3.29331 10.8875 2.70831 9.75002 2.70831C7.95169 2.70831 6.50002 4.15998 6.50002 5.95831C6.50002 6.33748 6.57585 6.70581 6.69502 7.04165H4.33335C3.13085 7.04165 2.17752 8.00581 2.17752 9.20831L2.16669 21.125C2.16669 22.3275 3.13085 23.2916 4.33335 23.2916H21.6667C22.8692 23.2916 23.8334 22.3275 23.8334 21.125V9.20831C23.8334 8.00581 22.8692 7.04165 21.6667 7.04165ZM16.25 4.87498C16.8459 4.87498 17.3334 5.36248 17.3334 5.95831C17.3334 6.55415 16.8459 7.04165 16.25 7.04165C15.6542 7.04165 15.1667 6.55415 15.1667 5.95831C15.1667 5.36248 15.6542 4.87498 16.25 4.87498ZM10.8334 5.95831C10.8334 5.36248 10.3459 4.87498 9.75002 4.87498C9.15419 4.87498 8.66669 5.36248 8.66669 5.95831C8.66669 6.55415 9.15419 7.04165 9.75002 7.04165C10.3459 7.04165 10.8334 6.55415 10.8334 5.95831ZM21.6667 21.125H4.33335V18.9583H21.6667V21.125ZM4.33335 15.7083H21.6667V9.20832H16.1634L18.4167 12.2741L16.6617 13.5416L13 8.55832L9.33835 13.5416L7.58335 12.2741L9.83669 9.20832H4.33335V15.7083Z" fill="black"/>
</g>
</svg>
