<svg width="27" height="26" viewBox="0 0 27 26" fill="none" xmlns="http://www.w3.org/2000/svg">
<g clip-path="url(#clip0)">
<path d="M19.1125 26C18.2598 26 17.4143 25.8516 16.5876 25.556C12.9454 24.2537 9.56474 22.1327 6.81085 19.4221C4.05697 16.7116 1.90204 13.384 0.579012 9.79906C0.153857 8.64698 0.0283896 7.45773 0.206221 6.26422C0.372806 5.14627 0.812767 4.06096 1.47859 3.12561C2.14736 2.18614 3.03894 1.40475 4.05692 0.865937C5.14248 0.291371 6.32735 0 7.57872 0C7.96792 0 8.30429 0.267657 8.38585 0.642204L9.68149 6.59347C9.74015 6.86296 9.656 7.14336 9.45805 7.33825L7.24416 9.51729C9.33263 13.6043 12.7215 16.9399 16.8738 18.9955L19.0876 16.8164C19.2856 16.6216 19.5706 16.5389 19.8443 16.5965L25.8906 17.8718C26.2712 17.9521 26.5431 18.2831 26.5431 18.6662C26.5431 19.8979 26.2471 21.0642 25.6633 22.1327C25.1158 23.1347 24.322 24.0122 23.3675 24.6705C22.4173 25.3259 21.3146 25.7589 20.1788 25.9229C19.8228 25.9743 19.467 25.9999 19.1125 26ZM6.91919 1.66048C5.26856 1.83983 3.8035 2.6914 2.83062 4.05812C1.73659 5.59495 1.48148 7.4852 2.13069 9.2443C4.6743 16.1363 10.1491 21.5251 17.1512 24.0287C18.9384 24.6677 20.8588 24.4167 22.4203 23.3398C23.8088 22.3822 24.674 20.9402 24.8562 19.3155L19.9375 18.2781L17.6255 20.5538C17.3794 20.7959 17.0056 20.8603 16.6908 20.7147C11.7799 18.4438 7.80479 14.5312 5.49768 9.6975C5.34977 9.3876 5.41508 9.01965 5.66111 8.77753L7.97318 6.50182L6.91919 1.66048Z" fill="black"/>
</g>
<defs>
<clipPath id="clip0">
<rect width="26.4153" height="26" fill="white" transform="translate(0.12793)"/>
</clipPath>
</defs>
</svg>
