<svg id="Capa_1" enable-background="new 0 0 512 512" height="512" viewBox="0 0 512 512" width="512" xmlns="http://www.w3.org/2000/svg"><g><path d="m424.739 279.518h-113.872c-6.266-18.437-23.733-31.745-44.262-31.745s-37.996 13.308-44.262 31.745h-83.22c-18.245 0-33.088-14.843-33.088-33.088 0-18.229 14.831-33.06 33.06-33.06h282.093c9.284 0 18.237-3.903 24.561-10.708 30.223-32.522 66.251-78.329 66.251-111.872 0-50.062-40.739-90.79-90.812-90.79-50.074 0-90.813 40.728-90.813 90.79 0 27.327 23.911 62.79 49.114 92.581h-240.394c-34.771 0-63.06 28.289-63.06 63.06 0 34.787 28.301 63.087 63.088 63.087h83.22c6.266 18.437 23.733 31.745 44.262 31.745s37.996-13.308 44.262-31.745h113.872c31.573 0 57.261 25.688 57.261 57.262s-25.688 57.261-57.261 57.261h-49.715c-6.266-18.437-23.733-31.745-44.262-31.745s-37.996 13.308-44.262 31.745h-142.107c-6.938-33.058-36.321-57.959-71.418-57.959-40.238 0-72.975 32.729-72.975 72.959s32.737 72.959 72.976 72.959c35.097 0 64.479-24.901 71.418-57.959h142.106c6.266 18.437 23.733 31.745 44.262 31.745s37.996-13.308 44.262-31.745h49.715c48.116 0 87.261-39.145 87.261-87.261s-39.145-87.262-87.261-87.262zm-3.551-249.518c33.531 0 60.812 27.271 60.812 60.79 0 17.762-22.311 52.803-58.227 91.45-.868.935-1.885 1.131-2.585 1.131s-1.717-.196-2.586-1.131c-35.915-38.646-58.227-73.687-58.227-91.449.001-33.52 27.281-60.791 60.813-60.791zm-154.583 281.263c-9.233 0-16.745-7.512-16.745-16.745s7.512-16.745 16.745-16.745 16.745 7.512 16.745 16.745-7.511 16.745-16.745 16.745zm-193.629 170.737c-23.697 0-42.976-19.271-42.976-42.959s19.279-42.959 42.976-42.959 42.976 19.271 42.976 42.959-19.279 42.959-42.976 42.959zm257.786-26.214c-9.233 0-16.745-7.512-16.745-16.745s7.512-16.745 16.745-16.745 16.745 7.512 16.745 16.745-7.511 16.745-16.745 16.745z"/><path d="m436.188 91.685c-.364-8.127-6.591-15-15-15-7.846 0-15.363 6.899-15 15 .364 8.127 6.591 15 15 15 7.846 0 15.363-6.899 15-15z"/></g></svg>