<svg width="21" height="26" viewBox="0 0 21 26" fill="none" xmlns="http://www.w3.org/2000/svg">
<path d="M20.8186 11.4126C20.7794 10.2215 19.7742 9.28906 18.5825 9.28906H15.404L13.4501 6.3582C13.4653 6.35845 13.4803 6.35938 13.4956 6.35938C15.1575 6.35938 16.5006 4.96851 16.422 3.2897C16.3519 1.79029 15.135 0.57345 13.6356 0.503284C11.9569 0.424671 10.566 1.76778 10.566 3.42964C10.566 3.97344 10.7154 4.48277 10.9746 4.91968C10.7289 4.9562 10.4955 5.03301 10.2819 5.14434C10.0265 4.78218 9.66078 4.496 9.21859 4.33946L7.83778 3.85049C6.69296 3.44507 5.43852 4.04341 5.0331 5.18823L3.80102 8.66748C2.76875 8.49326 1.72642 9.08032 1.36519 10.1003L0.876225 11.4812C0.471832 12.6233 1.07193 13.8814 2.21402 14.2859L4.97563 15.2638C5.35825 15.3993 5.76728 15.4288 6.17148 15.341V18.8051C6.17148 19.05 6.04907 19.2787 5.84536 19.4145L2.75552 21.4743C1.74522 22.1475 1.47232 23.5105 2.14614 24.5217C2.82173 25.5342 4.18794 25.8019 5.19296 25.1309L9.58749 22.2012C10.1988 21.7937 10.566 21.1076 10.566 20.3729V17.9714L12.0308 18.7038V23.2637C12.0308 24.4932 13.0369 25.5207 14.2662 25.4996C15.4603 25.4792 16.4253 24.5015 16.4253 23.3027V17.3456C16.4253 16.5078 15.9598 15.7547 15.2104 15.38L11.1595 13.3549L11.7873 11.7859L12.3997 12.7049C12.8072 13.3162 13.4933 13.6835 14.2281 13.6835H17.8902V24.7468C17.8902 25.1412 18.1932 25.4805 18.5872 25.4991C19.0078 25.5189 19.355 25.1837 19.355 24.7675V13.5576C20.2293 13.2474 20.8511 12.399 20.8186 11.4126ZM12.0356 3.31026C12.0921 2.60079 12.6668 2.02608 13.3762 1.96959C14.2777 1.89776 15.0276 2.64761 14.9557 3.54908C14.8992 4.2585 14.3245 4.83321 13.6151 4.88975C12.7136 4.96158 11.9638 4.21172 12.0356 3.31026ZM6.41391 5.6772C6.54902 5.29561 6.96718 5.09619 7.34877 5.2313L8.72958 5.72026C9.01483 5.82129 9.20428 6.08364 9.21669 6.37842L7.75517 10.0322L5.19292 9.12485L6.41391 5.6772ZM5.46455 13.8829L2.70293 12.905C2.32222 12.7702 2.12217 12.3508 2.25698 11.9701L2.74595 10.5893C2.88076 10.2086 3.30029 10.0086 3.68081 10.1434C3.96435 10.2437 6.92748 11.2931 7.21068 11.3933L6.34921 13.5471C6.17914 13.8558 5.80795 14.0045 5.46455 13.8829ZM9.10111 20.3729C9.10111 20.6184 8.97919 20.8462 8.77494 20.9823L4.38003 23.9123C4.0437 24.1368 3.58862 24.0444 3.36489 23.709C3.14058 23.3724 3.23091 22.9178 3.56792 22.6933L6.98398 20.4159C7.3915 20.1442 7.63627 19.6868 7.63627 19.197V16.5065L9.10111 17.2389V20.3729ZM18.6226 12.2187H14.2281C13.9831 12.2187 13.7545 12.0963 13.6186 11.8925L12.234 9.81479C12.0832 9.58847 11.8191 9.46445 11.5488 9.49247C11.2783 9.5206 11.0456 9.69638 10.9446 9.94887L9.54906 13.4365C9.40756 13.7902 9.56078 14.1933 9.90155 14.3637L14.5554 16.6902C14.8037 16.8143 14.9605 17.068 14.9605 17.3456V23.2814C14.9605 23.6753 14.6584 24.0148 14.265 24.0341C13.8444 24.0549 13.4956 23.7187 13.4956 23.3026V18.2511C13.4956 17.9737 13.3389 17.7201 13.0908 17.5961L8.04105 15.0712C7.70575 14.9035 7.55102 14.5016 7.68524 14.1526L10.6445 6.76177C10.8898 6.27622 11.5865 6.20356 11.9077 6.6855L14.4026 10.4277C14.5384 10.6315 14.7671 10.7538 15.012 10.7538H18.6013C18.9952 10.7538 19.3347 11.0559 19.3541 11.4494C19.3748 11.8699 19.0386 12.2187 18.6226 12.2187Z" fill="black"/>
</svg>
