<svg width="23" height="26" viewBox="0 0 23 26" fill="none" xmlns="http://www.w3.org/2000/svg">
<path d="M19.6828 19.2202C21.5828 16.7796 22.6249 13.803 22.6249 10.6562C22.6249 6.89838 21.1562 3.37184 18.489 0.726537C18.1843 0.424976 17.6922 0.424976 17.3875 0.726537C14.7187 3.37184 13.25 6.89838 13.25 10.6562C13.25 13.803 14.2922 16.7796 16.1937 19.2202L13.35 24.3389C13.1875 24.628 13.2281 24.9874 13.4469 25.2358C13.6656 25.4842 14.0141 25.5655 14.3234 25.4452L17.9375 23.9983L21.5531 25.4452C21.6484 25.4811 21.7468 25.4999 21.8437 25.4999C22.064 25.4999 22.2781 25.4061 22.4296 25.2358C22.6484 24.9874 22.6874 24.628 22.5265 24.3389L19.6828 19.2202ZM17.9375 2.41715C19.3515 4.00933 20.3062 5.91089 20.7578 7.95932C18.8968 8.389 16.9765 8.389 15.1172 7.95932C15.5687 5.91089 16.5234 4.00933 17.9375 2.41715ZM14.8125 10.6562C14.8125 10.2671 14.8312 9.88118 14.8656 9.49837C15.8797 9.72493 16.9062 9.87337 17.9375 9.87337C18.9687 9.87337 19.9953 9.72493 21.0093 9.49837C21.0437 9.88118 21.0625 10.2671 21.0625 10.6562C21.0625 13.5874 20.0453 16.3546 18.1937 18.578C18.1484 18.6218 18.1109 18.6671 18.0781 18.7202C18.0297 18.7765 17.9875 18.839 17.9375 18.8952C17.8875 18.839 17.8453 18.778 17.7968 18.7202C17.764 18.6671 17.7265 18.6218 17.6812 18.578C15.8297 16.3546 14.8125 13.5874 14.8125 10.6562ZM18.2281 22.4296C18.0422 22.3546 17.8343 22.3546 17.6484 22.4296L15.7844 23.1764L17.2859 20.4749C17.3219 20.5108 17.3515 20.5499 17.3875 20.5858C17.539 20.7374 17.739 20.8124 17.9375 20.8124C18.1359 20.8124 18.3359 20.7374 18.489 20.5858C18.525 20.5499 18.5547 20.5108 18.5906 20.4749L20.0921 23.1764L18.2281 22.4296Z" fill="black"/>
<path d="M18.7499 5.1875H18.7343C18.303 5.1875 17.9608 5.5375 17.9608 5.96875C17.9608 6.39999 18.3186 6.74999 18.7499 6.74999C19.1811 6.74999 19.5311 6.39999 19.5311 5.96875C19.5311 5.5375 19.1811 5.1875 18.7499 5.1875Z" fill="black"/>
<path d="M10.1249 8.4562V1.28125C10.1249 0.849998 9.77495 0.5 9.3437 0.5C8.91245 0.5 8.56245 0.849998 8.56245 1.28125V8.4562C7.65465 8.77964 6.99996 9.63901 6.99996 10.6562C6.99996 11.6734 7.65465 12.5327 8.56245 12.8562V20.8124C8.56245 22.5358 7.1609 23.9374 5.43747 23.9374C3.71405 23.9374 2.31249 22.5358 2.31249 20.8124V18.7218L3.33748 19.6921C3.64998 19.9874 4.14685 19.9749 4.44217 19.6608C4.73748 19.3468 4.72498 18.853 4.41092 18.5561L2.06718 16.3374C1.84062 16.1249 1.50937 16.064 1.22343 16.1874C0.937499 16.3108 0.75 16.5937 0.75 16.9062V20.8124C0.75 23.3967 2.85311 25.4999 5.43747 25.4999C8.02183 25.4999 10.1249 23.3967 10.1249 20.8124V12.8562C11.0328 12.5327 11.6874 11.6734 11.6874 10.6562C11.6874 9.63901 11.0328 8.77964 10.1249 8.4562ZM9.3437 11.4374C8.91401 11.4374 8.56245 11.0874 8.56245 10.6562C8.56245 10.2249 8.91401 9.87494 9.3437 9.87494C9.77338 9.87494 10.1249 10.2249 10.1249 10.6562C10.1249 11.0874 9.77338 11.4374 9.3437 11.4374Z" fill="black"/>
</svg>
