<svg width="22" height="24" viewBox="0 0 22 24" fill="none" xmlns="http://www.w3.org/2000/svg">
<path d="M3.27942 0C2.08654 0 0.504395 3.21252 0.504395 5.66484C0.504395 7.2812 1.04574 8.15868 1.85446 8.56961C2.50667 8.9015 2.88888 9.60004 2.81778 10.3282L1.65449 22.2087C1.60992 22.6673 1.76078 23.1234 2.07004 23.4642C2.37936 23.8055 2.81846 24 3.27946 24C3.74047 24 4.17947 23.8055 4.48884 23.4642C4.79815 23.1234 4.94892 22.6673 4.90439 22.2087L3.7411 10.3282C3.66995 9.60004 4.0528 8.90155 4.70438 8.56961C5.51309 8.15863 6.05444 7.2812 6.05444 5.66484C6.05444 3.21252 4.5358 0 3.27942 0Z" fill="#000100"/>
<path d="M13.9275 0C13.7079 0 13.5297 0.178065 13.5297 0.398469V5.3C13.5297 5.52109 13.3508 5.69998 13.1297 5.69998C12.9086 5.69998 12.7297 5.52109 12.7297 5.3V0.398469C12.7297 0.178065 12.5514 0 12.3319 0H12.3273C12.1077 0 11.9297 0.178065 11.9297 0.398469V5.3C11.9297 5.52109 11.7508 5.69998 11.5295 5.69998C11.3084 5.69998 11.1295 5.52109 11.1295 5.3V0.398469C11.1295 0.178065 10.9515 0 10.7319 0H10.7271C10.5076 0 10.3296 0.178065 10.3296 0.398469V5.3C10.3296 5.52109 10.1506 5.69998 9.9296 5.69998C9.70852 5.69998 9.52958 5.52109 9.52958 5.3V0.398469C9.52958 0.178065 9.35132 0 9.13179 0C8.92326 0 8.75439 0.168575 8.75439 0.376472C8.75439 1.61699 8.75439 5.49997 8.75439 5.66484C8.75439 7.2812 9.29599 8.15868 10.1045 8.56961C10.7569 8.9015 11.1389 9.60004 11.0678 10.3282L9.90454 22.2087C9.85996 22.6673 10.0108 23.1234 10.3201 23.4642C10.6296 23.8055 11.0687 24 11.5295 24C11.9905 24 12.4295 23.8055 12.739 23.4642C13.0483 23.1234 13.1992 22.6673 13.1546 22.2087L11.9913 10.3282C11.9202 9.60004 12.303 8.90155 12.9546 8.56961C13.7631 8.15863 14.3045 7.2812 14.3045 5.66484C14.3045 5.49997 14.3045 1.61704 14.3045 0.376472C14.3046 0.168575 14.136 0 13.9275 0Z" fill="#000100"/>
<path d="M20.4231 11.3336C20.5738 11.3336 20.6957 11.2118 20.6957 11.061V0.478133C20.6957 0.214028 20.4817 0 20.217 0C19.988 0 19.7864 0.151494 19.7233 0.371898L18.066 6.15003C17.5818 7.84056 17.8786 9.66024 18.8755 11.1093C18.9725 11.25 19.1325 11.3336 19.3029 11.3336L18.2379 22.2087C18.1933 22.6673 18.3442 23.1234 18.6537 23.4642C18.963 23.8055 19.4021 24 19.8631 24C20.3239 24 20.7629 23.8055 21.0725 23.4642C21.3818 23.1234 21.5326 22.6673 21.488 22.2087L20.4231 11.3336Z" fill="#000100"/>
</svg>
