<svg width="25" height="23" viewBox="0 0 25 23" fill="none" xmlns="http://www.w3.org/2000/svg">
<path d="M22.157 10.2159V3.26475C22.157 1.85128 21.0071 0.701324 19.5936 0.701324H5.4063C3.99282 0.701324 2.84297 1.85128 2.84297 3.26475V10.2159C1.21426 10.6077 0 12.0758 0 13.8231V19.0078C0 19.4191 0.333447 19.7525 0.744775 19.7525H2.84292V21.5539C2.84292 21.9652 3.17637 22.2986 3.5877 22.2986C3.99902 22.2986 4.33247 21.9652 4.33247 21.5539V19.7525H20.6674V21.5539C20.6674 21.9652 21.0009 22.2986 21.4122 22.2986C21.8235 22.2986 22.157 21.9652 22.157 21.5539V19.7525H24.2551C24.6665 19.7525 24.9999 19.4191 24.9999 19.0078V13.8231C25 12.0758 23.7857 10.6077 22.157 10.2159ZM4.33252 3.26475C4.33252 2.67266 4.81426 2.19092 5.4063 2.19092H19.5937C20.1857 2.19092 20.6675 2.67266 20.6675 3.26475V10.1125H18.2063V8.93751C18.2063 6.99073 16.6225 5.40694 14.6757 5.40694H10.3244C8.37759 5.40694 6.7938 6.99078 6.7938 8.93751V10.1125H4.33252V3.26475ZM16.7167 8.93751V10.1125H8.28325V8.93751C8.28325 7.81207 9.19883 6.89649 10.3243 6.89649H14.6757C15.8011 6.89644 16.7167 7.81212 16.7167 8.93751ZM1.48955 18.263V13.8231C1.48955 12.5984 2.48589 11.6021 3.71055 11.6021H21.2894C22.514 11.6021 23.5104 12.5984 23.5104 13.8231V18.263H1.48955Z" fill="black"/>
</svg>
