<svg width="21" height="24" viewBox="0 0 21 24" fill="none" xmlns="http://www.w3.org/2000/svg">
<path d="M0.583435 0.75V23.25H20.5834V0.75H0.583435ZM19.2501 21.9316H13.9168V20.042H19.2501V21.9316ZM19.2501 18.7236H12.5834V21.9316H1.91677V2.06836H19.2501V18.7236Z" fill="black"/>
<path d="M17.25 9.71484C14.7724 9.71484 12.5782 10.9362 11.25 12.8017V9.94169C14.2458 9.61271 16.5833 7.09434 16.5833 4.0459V3.38672H15.9167C13.5975 3.38672 11.5816 4.69458 10.5833 6.60343C9.58502 4.69458 7.56916 3.38672 5.25 3.38672H4.58333V4.0459C4.58333 7.09434 6.92084 9.61271 9.91667 9.94169V12.8017C8.58844 10.9362 6.39422 9.71484 3.91667 9.71484H3.25V10.374C3.25 14.15 6.18436 17.2606 9.91667 17.5947V20.6133H11.25V17.5947C14.9823 17.2606 17.9167 14.15 17.9167 10.374V9.71484H17.25ZM15.1942 4.76027C14.8827 6.73381 13.3018 8.29695 11.3059 8.60492C11.6173 6.63142 13.1982 5.06829 15.1942 4.76027ZM5.97249 4.76027C7.96844 5.06824 9.54933 6.63142 9.8608 8.60492C7.86489 8.29695 6.284 6.73381 5.97249 4.76027ZM4.62489 11.0743C7.36862 11.3946 9.55116 13.5526 9.87511 16.2656C7.13138 15.9452 4.94884 13.7872 4.62489 11.0743ZM11.2916 16.2656C11.6155 13.5526 13.798 11.3946 16.5418 11.0743C16.2178 13.7872 14.0353 15.9452 11.2916 16.2656Z" fill="black"/>
</svg>
