<svg width="27" height="24" viewBox="0 0 27 24" fill="none" xmlns="http://www.w3.org/2000/svg">
<path d="M23.3012 4.21154H19.5852L19.1525 2.91346C18.944 2.28317 18.5418 1.73475 18.0035 1.3463C17.4651 0.957854 16.8178 0.749181 16.1539 0.750002H10.8076C10.1439 0.749495 9.4969 0.958304 8.95871 1.34672C8.42052 1.73514 8.01852 2.28339 7.8099 2.91346L7.37635 4.21154H3.66038C2.82248 4.21246 2.01916 4.54572 1.42667 5.13821C0.834179 5.7307 0.500916 6.53402 0.5 7.37193V20.0931C0.501832 20.9304 0.835498 21.7328 1.42789 22.3246C2.02028 22.9163 2.82308 23.2491 3.66038 23.25H23.3046C24.1419 23.2482 24.9444 22.9145 25.5361 22.3221C26.1278 21.7297 26.4606 20.9269 26.4615 20.0896V7.36846C26.4597 6.53116 26.126 5.72872 25.5336 5.13698C24.9413 4.54524 24.1385 4.21245 23.3012 4.21154ZM24.7308 20.0896C24.7303 20.4686 24.5795 20.832 24.3115 21.1C24.0435 21.368 23.6802 21.5188 23.3012 21.5192H3.66038C3.28137 21.5188 2.91801 21.368 2.65 21.1C2.38199 20.832 2.23123 20.4686 2.23077 20.0896V7.36846C2.23214 6.99005 2.38331 6.62757 2.65122 6.36031C2.91913 6.09306 3.28197 5.94277 3.66038 5.94231H8.00029C8.18184 5.94217 8.35875 5.88494 8.50598 5.77871C8.65321 5.67248 8.7633 5.52264 8.82067 5.35039L9.45154 3.45779C9.54627 3.17312 9.72826 2.92552 9.97168 2.75014C10.2151 2.57476 10.5076 2.48051 10.8076 2.48077H16.1539C16.4541 2.48044 16.7467 2.57477 16.9902 2.75033C17.2336 2.92589 17.4155 3.17375 17.51 3.45866L18.1409 5.35039C18.1982 5.52264 18.3083 5.67248 18.4556 5.77871C18.6028 5.88494 18.7797 5.94217 18.9612 5.94231H23.3012C23.6802 5.94277 24.0435 6.09353 24.3115 6.36154C24.5795 6.62955 24.7303 6.99291 24.7308 7.37193V20.0896Z" fill="black"/>
<path d="M13.4807 6.80768C12.1971 6.80768 10.9422 7.18833 9.87488 7.90151C8.80754 8.61468 7.97565 9.62834 7.48441 10.8143C6.99317 12.0003 6.86464 13.3053 7.11507 14.5643C7.3655 15.8233 7.98365 16.9798 8.89135 17.8875C9.79905 18.7952 10.9555 19.4133 12.2145 19.6637C13.4735 19.9142 14.7785 19.7856 15.9645 19.2944C17.1505 18.8032 18.1641 17.9713 18.8773 16.9039C19.5905 15.8366 19.9711 14.5817 19.9711 13.2981C19.9693 11.5773 19.2849 9.92748 18.0681 8.71069C16.8513 7.49391 15.2015 6.80951 13.4807 6.80768ZM13.4807 18.0577C12.5394 18.0577 11.6192 17.7785 10.8364 17.2555C10.0537 16.7325 9.44368 15.9892 9.08343 15.1195C8.72319 14.2498 8.62893 13.2928 8.81258 12.3695C8.99623 11.4462 9.44954 10.5982 10.1152 9.93251C10.7808 9.26686 11.6289 8.81355 12.5522 8.6299C13.4755 8.44625 14.4325 8.54051 15.3022 8.90075C16.1719 9.261 16.9152 9.87105 17.4382 10.6538C17.9612 11.4365 18.2404 12.3567 18.2404 13.2981C18.239 14.56 17.7371 15.7698 16.8448 16.6621C15.9525 17.5544 14.7427 18.0563 13.4807 18.0577Z" fill="black"/>
<path d="M22.1345 9.40386C22.6125 9.40386 22.9999 9.01642 22.9999 8.53848C22.9999 8.06054 22.6125 7.6731 22.1345 7.6731C21.6566 7.6731 21.2692 8.06054 21.2692 8.53848C21.2692 9.01642 21.6566 9.40386 22.1345 9.40386Z" fill="black"/>
</svg>
