<svg width="24" height="20" viewBox="0 0 24 20" fill="none" xmlns="http://www.w3.org/2000/svg">
<path d="M13.5651 11.1773C13.5047 10.8776 13.38 10.5984 13.1837 10.3236C12.9005 9.92714 12.9307 9.32172 13.2511 8.97132C13.5716 8.62093 14.0608 8.65823 14.344 9.05479C14.7038 9.55859 14.9472 10.1167 15.0675 10.7137C15.189 11.3171 14.8202 11.9038 14.3157 11.9038C13.9686 11.9038 13.6528 11.6128 13.5651 11.1773ZM14.8141 5.84379C14.1073 5.35825 13.3062 4.8078 13.3065 4.43153C13.3065 4.32447 13.3992 3.35531 16.541 1.91605H23.2258C23.6534 1.91605 24 1.48716 24 0.958027C24 0.428897 23.6534 0 23.2258 0C22.9597 0 1.20271 0 0.774194 0C0.346597 0 0 0.428897 0 0.958027C0 1.48716 0.346597 1.91605 0.774194 1.91605H8.08064C6.79548 2.89612 6.12789 3.99336 6.09716 5.1785C6.01577 8.31795 10.2959 9.29208 10.555 11.7404C10.7286 13.3815 8.91929 15.6813 5.46034 18.2165C5.0924 18.4861 4.97085 19.0737 5.18874 19.529C5.40663 19.9842 5.88135 20.1347 6.24939 19.8651C10.4501 16.7863 12.3607 14.0473 12.0902 11.4917C11.8836 9.53872 10.5199 8.37178 9.31684 7.3422C8.48642 6.63164 7.62779 5.89678 7.64482 5.23999C7.65431 4.87306 7.99103 3.55727 11.8858 1.91599H13.0608C12.1821 2.70152 11.7585 3.52811 11.7581 4.4301C11.7557 8.63578 20.6072 7.06683 16.7046 18.6727C16.4913 19.3069 16.8715 19.9989 17.4191 19.9989C17.7225 19.9989 18.0104 19.7769 18.1342 19.4087C19.4605 15.4642 19.5782 12.223 18.484 9.77511C17.5742 7.74008 16.0438 6.68865 14.8141 5.84379ZM15.9748 12.8013C15.5523 12.7258 15.1589 13.0883 15.0976 13.6121C15.0035 14.416 14.7862 15.2827 14.4518 16.188C14.2165 16.8251 14.5963 17.5445 15.1554 17.5445C15.4491 17.5445 15.73 17.3366 15.86 16.9845C16.2557 15.9133 16.5148 14.8711 16.63 13.8867C16.6913 13.3632 16.398 12.8772 15.9748 12.8013ZM14.0744 18.1013C13.4508 18.268 13.2517 19.1899 13.6785 19.718C14.1909 20.3521 15.0651 19.8397 14.9961 18.9468C14.9531 18.3914 14.5299 17.9911 14.0744 18.1013ZM4.69355 8.56237C4.69355 8.03324 4.34695 7.60434 3.91935 7.60434H1.45161C1.02402 7.60434 0.677419 8.03324 0.677419 8.56237C0.677419 9.0915 1.02402 9.52039 1.45161 9.52039H3.91935C4.34695 9.52039 4.69355 9.0915 4.69355 8.56237ZM7.59677 12.6939C7.59677 12.1647 7.25018 11.7358 6.82258 11.7358H2.95161C2.52402 11.7358 2.17742 12.1647 2.17742 12.6939C2.17742 13.223 2.52402 13.6519 2.95161 13.6519H6.82258C7.25018 13.6519 7.59677 13.223 7.59677 12.6939ZM18.4355 3.53273C18.0079 3.53273 17.6613 3.96162 17.6613 4.49075C17.6613 5.01988 18.0079 5.44878 18.4355 5.44878H21.6774C22.105 5.44878 22.4516 5.01988 22.4516 4.49075C22.4516 3.96162 22.105 3.53273 21.6774 3.53273H18.4355ZM23.2258 8.50249H21.5806C21.153 8.50249 20.8065 8.93139 20.8065 9.46052C20.8065 9.98965 21.153 10.4185 21.5806 10.4185H23.2258C23.6534 10.4185 24 9.98965 24 9.46052C24 8.93139 23.6534 8.50249 23.2258 8.50249ZM21.7742 13.5321H21.1935C20.766 13.5321 20.4194 13.961 20.4194 14.4902C20.4194 15.0193 20.766 15.4482 21.1935 15.4482H21.7742C22.2018 15.4482 22.5484 15.0193 22.5484 14.4902C22.5484 13.961 22.2018 13.5321 21.7742 13.5321Z" fill="black"/>
</svg>
