<svg id="Capa_1" enable-background="new 0 0 512 512" height="512" viewBox="0 0 512 512" width="512" xmlns="http://www.w3.org/2000/svg"><path d="m469.082 398.859h-194.319v-43.015h194.349c5.689 0 10.89-3.219 13.427-8.313 2.536-5.093 1.974-11.183-1.454-15.724l-206.322-273.371v-43.436c0-8.284-6.716-15-15-15-27.189 0-53.987 14.119-79.647 41.966-20.964 22.75-40.688 53.996-58.622 92.869-31.212 67.652-53.011 152.125-53.011 205.421 0 8.284 6.716 15 15 15h161.28v43.604h-201.874c-5.833 0-11.138 3.382-13.599 8.671s-1.634 11.524 2.123 15.988l69.972 83.14c2.85 3.387 7.05 5.342 11.477 5.342h286.248c4.426 0 8.626-1.955 11.477-5.341l69.973-83.141c3.756-4.464 4.584-10.699 2.123-15.988-2.463-5.29-7.767-8.672-13.601-8.672zm-194.319-73.014v-217.61l164.235 217.609h-164.235zm-126.029-178.442c29.729-64.438 63.965-105.142 96.028-115.044v292.896h-145.72c3.486-49.485 22.942-119.87 49.692-177.852zm243.394 334.597h-272.286l-44.724-53.141h361.734z"/></svg>